<?xml version="1.0" encoding="UTF-8" standalone="no"?>
<!-- Created with Inkscape (http://www.inkscape.org/) -->

<svg
   width="400mm"
   height="150mm"
   viewBox="0 0 400 150"
   version="1.1"
   id="svg1"
   xml:space="preserve"
   inkscape:version="1.4.4 (dcaf3e7d9e, 2026-05-05)"
   sodipodi:docname="magi_alt.svg"
   xmlns:inkscape="http://www.inkscape.org/namespaces/inkscape"
   xmlns:sodipodi="http://sodipodi.sourceforge.net/DTD/sodipodi-0.dtd"
   xmlns="http://www.w3.org/2000/svg"
   xmlns:svg="http://www.w3.org/2000/svg"><sodipodi:namedview
     id="namedview1"
     pagecolor="#ffffff"
     bordercolor="#999999"
     borderopacity="1"
     inkscape:showpageshadow="2"
     inkscape:pageopacity="0"
     inkscape:pagecheckerboard="0"
     inkscape:deskcolor="#d1d1d1"
     inkscape:document-units="mm"
     inkscape:zoom="1.2151315"
     inkscape:cx="664.94861"
     inkscape:cy="476.08016"
     inkscape:window-width="1707"
     inkscape:window-height="2134"
     inkscape:window-x="0"
     inkscape:window-y="0"
     inkscape:window-maximized="1"
     inkscape:current-layer="layer1" /><defs
     id="defs1" /><g
     inkscape:label="Layer 1"
     inkscape:groupmode="layer"
     id="layer1"><path
       d="m 284.6836,132.22693 c -0.0495,-0.13606 -0.29896,-1.27187 -0.55425,-2.52415 -0.25528,-1.2523 -0.48842,-2.2992 -0.51809,-2.32644 -0.0296,-0.0272 -1.5302,0.17957 -3.33451,0.45975 -3.77746,0.58648 -3.59177,0.66184 -3.85337,-1.5639 -0.11923,-1.0146 -0.0841,-1.28618 0.16706,-1.29033 0.63922,-0.012 6.2125,-0.88349 6.31868,-0.98964 0.21922,-0.21923 -0.22043,-2.2545 -0.51093,-2.36603 -0.16442,-0.063 -1.32453,0.0481 -2.5778,0.24749 -3.05365,0.4855 -2.94529,0.50283 -3.10567,-0.49746 -0.0757,-0.47288 -0.20288,-1.18389 -0.28226,-1.58009 l -0.14446,-0.72032 1.22735,-0.15047 c 4.08195,-0.5004 4.59044,-0.62984 4.46614,-1.1368 -0.0649,-0.265 -0.18893,-1.02339 -0.27509,-1.6854 -0.14038,-1.07687 -0.11153,-1.20569 0.27377,-1.223 0.23702,-0.012 1.03457,-0.0945 1.77256,-0.18653 1.50715,-0.18798 1.4242,-0.27194 1.64157,1.66361 l 0.15096,1.343 0.72553,-0.14711 c 0.39906,-0.0808 1.30409,-0.20817 2.01118,-0.28326 1.28134,-0.13582 1.28649,-0.13389 1.53795,0.58758 0.21346,0.61222 0.33776,0.70239 0.80645,0.58475 0.48878,-0.1226 0.56809,-0.049 0.67275,0.62368 0.0654,0.41954 0.0387,0.84866 -0.0589,0.95359 -0.0978,0.10504 -1.24105,0.33941 -2.54076,0.52107 -1.2997,0.18172 -2.39727,0.36446 -2.43905,0.40624 -0.17403,0.17403 0.45016,2.43549 0.67222,2.43549 0.13317,0 1.4784,-0.21105 2.98943,-0.46874 1.51102,-0.2578 2.77782,-0.43825 2.81508,-0.40097 0.0372,0.0373 0.10216,0.78984 0.14374,1.67236 l 0.0762,1.60461 -2.80849,0.44287 c -1.56446,0.24668 -2.80813,0.55133 -2.80772,0.6878 4.3e-4,0.13461 0.20047,1.27429 0.44458,2.53241 0.2441,1.25812 0.40395,2.32738 0.35521,2.37613 -0.0486,0.0486 -0.82626,0.21393 -1.72783,0.36703 -1.16081,0.19735 -1.66549,0.20625 -1.72928,0.031 z m -23.0437,-0.98765 c -1.10849,-1.64051 -2.59415,-3.40011 -4.6578,-5.51665 l -1.85354,-1.90099 0.57318,-0.44927 c 0.31521,-0.24711 1.03245,-0.72361 1.59386,-1.05894 l 1.02074,-0.60965 1.31259,1.46297 1.31262,1.463 0.53246,-0.44393 c 1.82659,-1.52288 3.85679,-3.80804 3.85679,-4.34113 0,-0.0719 -2.7372,-0.13052 -6.08268,-0.13052 -4.66561,0 -6.10353,-0.0666 -6.17214,-0.28661 -0.049,-0.15745 -0.15432,-0.93135 -0.2334,-1.71948 l -0.14399,-1.43287 h 8.1025 8.10253 l 0.99188,1.01065 0.99185,1.01065 -1.72477,2.612 c -1.18331,1.79198 -2.34343,3.1976 -3.69532,4.47726 -1.08377,1.02591 -1.97051,1.93803 -1.97051,2.0269 0,0.0887 0.47807,0.72125 1.06236,1.4052 0.58431,0.68393 0.97118,1.32194 0.85974,1.41781 -0.27589,0.23725 -2.42944,1.74815 -2.76758,1.94161 -0.16659,0.0954 -0.5591,-0.26862 -1.01133,-0.93789 z m 28.43131,-13.73723 c -0.86082,-2.2004 -0.88928,-2.34562 -0.48167,-2.45874 0.21298,-0.0591 0.62061,-0.17475 0.90597,-0.25663 0.45333,-0.13028 0.59044,0.005 1.08675,1.07082 0.70638,1.51734 0.70849,1.70931 0.0216,1.88198 -0.30352,0.0762 -0.71476,0.20095 -0.91387,0.27742 -0.25247,0.0969 -0.43941,-0.0589 -0.61777,-0.51485 z m 2.34334,-1.48679 c -0.26901,-0.64729 -0.4891,-1.30778 -0.4891,-1.46778 0,-0.2522 1.1074,-0.79428 1.6226,-0.79428 0.17067,0 1.12856,2.32377 1.12856,2.73734 0,0.17836 -1.19988,0.70159 -1.6085,0.70159 -0.0904,0 -0.38455,-0.52958 -0.65356,-1.17687 z"
       style="fill:#ff0000;stroke-width:2.28326"
       id="path1-2" /><path
       d="m 175.68516,101.17942 c -1.70039,-1.493467 -3.58513,-3.169958 -4.18827,-3.725525 l -1.09663,-1.010134 -4.3e-4,-17.767867 c -2.4e-4,-9.772371 0.002,-17.941149 0.007,-18.152803 0.005,-0.211533 0.17019,-0.546958 0.36833,-0.745079 0.31254,-0.312541 1.33382,-0.36028 7.7067,-0.36028 h 7.34639 l 2.66753,2.342951 c 2.48982,2.186897 5.13111,4.523093 13.65062,12.07388 1.98678,1.760897 3.54756,2.978898 3.72828,2.909524 0.17091,-0.06562 2.91462,-2.430376 6.09705,-5.255047 3.1824,-2.82467 7.54004,-6.691793 9.68367,-8.593552 l 3.89747,-3.45778 7.38077,-0.0096 c 7.3725,-0.0096 7.38115,-0.0096 7.73766,0.499556 0.31567,0.450663 0.35691,2.59107 0.35691,18.529549 v 18.019978 l -3.1524,2.773025 c -1.73378,1.525174 -3.5602,3.194244 -4.05863,3.709014 l -0.90628,0.93599 -3.56439,-0.005 c -3.15851,-0.005 -3.62962,-0.0553 -4.13755,-0.44535 l -0.57313,-0.44026 -0.0796,-11.141072 -0.0796,-11.141027 -1.41084,1.228814 c -0.77594,0.675864 -3.06307,2.620265 -5.08244,4.320883 -2.01938,1.700601 -5.46615,4.614696 -7.65949,6.475774 -4.18692,3.552659 -4.08731,3.500622 -5.56701,2.909225 -0.28927,-0.11562 -1.15377,-0.759577 -1.92113,-1.431044 -1.70734,-1.494001 -14.82699,-12.519878 -15.59277,-13.104315 l -0.55073,-0.420347 v 11.217467 c 0,10.576162 -0.024,11.239192 -0.41927,11.596932 -0.35204,0.31855 -0.98692,0.37941 -3.95825,0.37941 h -3.53895 z m 69.8935,2.42884 c -0.0709,-0.24062 -0.0623,-22.092315 0.0144,-33.113788 l 0.024,-3.252209 4.16435,-3.912289 4.16435,-3.912242 h 18.04636 18.04636 l 4.02933,3.954789 4.02936,3.954812 0.1161,17.908791 c 0.0892,13.797782 0.0522,17.995606 -0.16129,18.287136 -0.24983,0.34093 -1.04875,0.37238 -8.07224,0.31767 l -7.79499,-0.0608 -0.0608,-6.591352 -0.0608,-6.591294 h -10.08412 -10.0841 v 6.648604 6.648652 h -8.11433 c -6.29358,0 -8.13332,-0.0644 -8.19887,-0.28658 z m 29.50138,-23.960442 c 3.90592,-0.09327 7.0759,-0.246869 7.04436,-0.341434 -0.0315,-0.09447 -0.0572,-1.411073 -0.0572,-2.925534 v -2.753566 l -10.03032,0.05985 -10.03028,0.05985 -0.0611,6.075485 -0.0611,6.075482 3.04693,-3.040182 3.04695,-3.040204 z m 36.41186,24.027652 c -0.45276,-0.10793 -2.31786,-1.5358 -4.98518,-3.816687 l -4.2618,-3.644269 0.002,-12.953358 C 302.24892,66.990033 301.7789,68.889605 307.07,63.81614 l 3.77054,-3.615469 1.71883,-0.40189 c 1.56669,-0.366362 3.09837,-0.395472 17.30876,-0.329103 18.50327,0.0863 17.5145,-0.0351 19.71671,2.422516 0.75657,0.844308 2.3299,2.548764 3.49629,3.787677 1.16634,1.238914 2.12067,2.353528 2.12067,2.476938 0,0.123315 0.20072,0.639625 0.44585,1.147161 0.5491,1.136537 1.00448,3.10166 0.89597,3.866522 l -0.0808,0.570059 -19.40294,-0.0774 -19.40294,-0.0774 -0.10385,9.136338 c -0.0572,5.024953 -0.0305,9.221519 0.0591,9.325699 0.14398,0.167537 23.79342,0.271507 23.95957,0.105277 0.0363,-0.0363 0.0937,-1.252431 0.1274,-2.702345 l 0.0615,-2.636205 -3.68623,-0.114657 -3.68626,-0.11466 -1.11351,-0.792167 c -1.40497,-0.999514 -6.95975,-5.936031 -6.95975,-6.185136 0,-0.102401 0.40156,-0.250066 0.89239,-0.328574 0.77993,-0.124756 20.21333,-0.928728 26.84854,-1.110791 l 2.40727,-0.06586 0.063,8.482728 c 0.056,7.549378 0.0216,8.577852 -0.32364,9.347446 -0.24743,0.553377 -1.25848,1.626491 -2.80811,2.980405 -1.33182,1.163641 -3.13957,2.760501 -4.01719,3.548631 l -1.59574,1.43288 -17.78312,-0.024 c -9.78074,-0.0144 -18.10867,-0.1012 -18.50654,-0.19591 z m 49.72861,0.0676 c -0.40975,-0.16538 -0.42107,-43.640568 -0.012,-44.05015 0.20264,-0.202399 2.2168,-0.275114 7.63718,-0.275114 h 7.36209 l 0.0618,18.54575 0.0618,18.545635 -3.74424,3.685639 -3.74424,3.68569 -3.66821,-0.012 c -2.01755,-0.007 -3.79722,-0.063 -3.95483,-0.12644 z"
       style="fill:#e8e8e8;stroke-width:2.28326"
       id="path1-3" /><g
       id="g2"
       style="fill:#e8e8e8"
       transform="matrix(2.2832648,0,0,2.2832648,-89.576543,-234.42904)"><path
         d="m 66.5225,134.42103 c -3.28391,-2.10017 -3.338342,-2.14041 -3.369173,-2.49098 -0.01724,-0.19597 0.153769,-3.00961 0.38001,-6.25253 0.226241,-3.24292 0.498511,-7.16139 0.605044,-8.70771 0.185416,-2.69131 0.20351,-2.81951 0.423274,-2.99899 1.089285,-0.88958 10.528522,-7.69474 10.67315,-7.69474 0.13143,0 2.726581,1.85041 7.529929,5.36903 1.270195,0.93046 2.535368,1.85267 2.811497,2.04935 0.27613,0.19667 0.52954,0.3964 0.563134,0.44383 0.03359,0.0474 0.09159,0.65875 0.128891,1.35847 0.131349,2.46434 0.467683,7.64396 0.764774,11.77771 0.165213,2.29879 0.300387,4.36165 0.300387,4.58414 v 0.40453 l -2.685984,1.70201 c -1.477291,0.9361 -2.984568,1.88932 -3.349503,2.11826 l -0.66352,0.41627 h -1.413924 -1.413925 l -0.249436,-0.82839 c -0.288348,-0.95762 -0.793955,-2.76788 -1.702767,-6.09655 -0.402983,-1.47598 -0.666169,-2.28249 -0.704487,-2.15882 -0.03364,0.10858 -0.26848,1.01074 -0.521858,2.00481 -0.606379,2.37897 -1.8657,6.91073 -1.943471,6.99372 -0.0337,0.036 -0.682938,0.0825 -1.442743,0.10332 l -1.381462,0.0379 z"
         style="fill:#e8e8e8"
         id="path1-26" /><path
         d="m 85.727476,137.7532 c 3.460755,-1.79386 3.522823,-1.82088 3.841834,-1.6723 0.178341,0.0831 2.529518,1.63798 5.224848,3.45537 2.69533,1.81739 5.952692,4.01241 7.238582,4.87784 2.23803,1.50622 2.34001,1.58599 2.38556,1.86605 0.22576,1.38814 1.39958,12.96534 1.32727,13.09059 -0.0657,0.11382 -2.96579,1.43609 -8.414682,3.8366 -1.4409,0.63479 -2.87214,1.26936 -3.18054,1.41015 -0.30839,0.1408 -0.60806,0.26039 -0.66594,0.26577 -0.0579,0.005 -0.61628,-0.25005 -1.24091,-0.56761 -2.199854,-1.11842 -6.853706,-3.41695 -10.582185,-5.22654 -2.073414,-1.00631 -3.927492,-1.92068 -4.120175,-2.03193 l -0.350332,-0.20226 -0.13099,-3.17714 c -0.07204,-1.74742 -0.143919,-3.52937 -0.159722,-3.95988 l -0.02873,-0.78276 0.706962,-1.22449 0.706963,-1.2245 0.842123,0.19818 c 0.973491,0.22909 2.794027,0.69635 6.131145,1.57363 1.479734,0.389 2.309783,0.56433 2.221843,0.46931 -0.07721,-0.0834 -0.741091,-0.73788 -1.475289,-1.45435 -1.75706,-1.71462 -5.052021,-5.07111 -5.085008,-5.17995 -0.0143,-0.0472 0.270057,-0.63268 0.631899,-1.30111 l 0.657892,-1.21534 z"
         style="fill:#e8e8e8"
         id="path1-26-2" /><path
         d="m 73.446457,152.62235 c -0.176845,3.89403 -0.184481,3.9613 -0.472661,4.16328 -0.1611,0.11292 -2.683289,1.37164 -5.604858,2.79717 -2.921569,1.42552 -6.451198,3.14896 -7.843621,3.82986 -2.42345,1.18508 -2.543524,1.23352 -2.808835,1.13293 -1.315043,-0.49856 -11.928104,-5.27059 -12.000418,-5.39584 -0.06571,-0.11382 0.239209,-3.28649 0.884751,-9.20563 0.170706,-1.56525 0.336773,-3.12202 0.369037,-3.4595 0.03226,-0.33747 0.07853,-0.6568 0.102809,-0.70961 0.02428,-0.0528 0.524693,-0.40869 1.112022,-0.79085 2.068501,-1.34592 6.386019,-4.22701 9.817407,-6.55117 1.908201,-1.29247 3.627106,-2.44097 3.819788,-2.55221 l 0.350332,-0.20227 2.816974,1.47513 c 1.549335,0.81132 3.128488,1.64005 3.509226,1.84162 l 0.692252,0.3665 0.706962,1.22449 0.706963,1.22449 -0.592687,0.63022 c -0.685144,0.72852 -2.000073,2.07152 -4.428379,4.52291 -1.076751,1.08698 -1.643614,1.71816 -1.517356,1.68952 0.110854,-0.0252 1.009571,-0.27287 1.997147,-0.55047 2.36344,-0.66434 6.917721,-1.83962 7.028479,-1.81377 0.048,0.0112 0.412881,0.55022 0.810844,1.1978 l 0.723571,1.17742 z"
         style="fill:#e8e8e8"
         id="path1-26-5" /></g><path
       sodipodi:type="star"
       style="fill:#ff0000;stroke-width:0.607094;stroke-linecap:round;stroke-linejoin:bevel"
       id="path2"
       inkscape:flatsided="true"
       sodipodi:sides="3"
       sodipodi:cx="32.06229"
       sodipodi:cy="115.13029"
       sodipodi:r1="12.514397"
       sodipodi:r2="6.2571988"
       sodipodi:arg1="0.52359878"
       sodipodi:arg2="1.5707963"
       inkscape:rounded="0"
       inkscape:randomized="0"
       d="m 42.900076,121.38749 -21.675571,0 10.837785,-18.7716 z"
       inkscape:transform-center-y="3.8067864"
       transform="matrix(-1.1557646,0,0,-1.1557646,119.24843,222.03653)"
       inkscape:transform-center-x="2.6004813e-06" /></g></svg>
